HIERARCHY
ROOT Spine
{
    OFFSET 0.0 0.0 -0.0
    CHANNELS 6 Xposition Yposition Zposition Zrotation Xrotation Yrotation
    JOINT ShoulderCenter
    {
        OFFSET 0.0 33.47124099731445 0.0
        CHANNELS 3 Zrotation Xrotation Yrotation
        JOINT LeftShoulder
        {
            OFFSET 19.03068733215332 0.0 0.0
            CHANNELS 3 Zrotation Xrotation Yrotation
            JOINT LeftElbow
            {
                OFFSET 29.755142211914062 0.0 0.0
                CHANNELS 3 Zrotation Xrotation Yrotation
                JOINT LeftHand
                {
                    OFFSET 33.20057678222656 0.0 0.0
                    CHANNELS 3 Zrotation Xrotation Yrotation
                    End Site
                    {
                        OFFSET 13.280232429504395 0.0 0.0
                    }
                }
            }
        }
        JOINT RightShoulder
        {
            OFFSET -19.03068733215332 0.0 0.0
            CHANNELS 3 Zrotation Xrotation Yrotation
            JOINT RightElbow
            {
                OFFSET -29.755142211914062 0.0 0.0
                CHANNELS 3 Zrotation Xrotation Yrotation
                JOINT RightHand
                {
                    OFFSET -33.20057678222656 0.0 0.0
                    CHANNELS 3 Zrotation Xrotation Yrotation
                    End Site
                    {
                        OFFSET -13.280232429504395 0.0 0.0
                    }
                }
            }
        }
        End Site
        {
            OFFSET 0.0 13.388495445251465 0.0
        }
    }
    JOINT LeftHip
    {
        OFFSET 16.227246092448336 -16.227246092448336 0.0
        CHANNELS 3 Zrotation Xrotation Yrotation
        JOINT LeftKnee
        {
            OFFSET 0.0 -40.64470291137695 0.0
            CHANNELS 3 Zrotation Xrotation Yrotation
            JOINT LeftFoot
            {
                OFFSET 0.0 -46.7921142578125 0.0
                CHANNELS 3 Zrotation Xrotation Yrotation
                End Site
                {
                    OFFSET 0.0 0.0 18.716846466064453
                }
            }
        }
    }
    JOINT RightHip
    {
        OFFSET -16.227246092448336 -16.227246092448336 0.0
        CHANNELS 3 Zrotation Xrotation Yrotation
        JOINT RightKnee
        {
            OFFSET 0.0 -40.64470291137695 0.0
            CHANNELS 3 Zrotation Xrotation Yrotation
            JOINT RightFoot
            {
                OFFSET 0.0 -46.7921142578125 0.0
                CHANNELS 3 Zrotation Xrotation Yrotation
                End Site
                {
                    OFFSET 0.0 0.0 18.716846466064453
                }
            }
        }
    }
}
MOTION
Frames: 11
Frame Time: 0.03333333333333333
64.20000457763672 24.5 -85.29999542236328 -7.05949705953516 13.143624395345698 1.949880819682372 4.063332739201246e-07 2.75938443332172e-07 5.55912476759916 99.09431904436968 12.403759855337539 -179.51123947003686 2.071823923713958e-06 -1.8121948833815466e-06 29.269019036020506 9.03849035454964e-15 -2.214698498516592e-31 -2.8078334297295105e-15 -95.0739050900443 10.644374244083147 -173.76114804655674 7.339376612972475e-07 -1.4469318514484632e-06 -31.953981080970085 -1.2921003393445536e-15 -7.951386703658791e-16 -8.965747167914385e-33 5.7297344101688825 -28.870365101728517 38.39086823208335 23.09591519655193 26.783536844204892 -98.36559566156049 0.0 0.0 -9.342879376799082e-15 0.2608930352933838 -30.167687091878612 -41.877856537107434 -26.516297520030182 27.566538466487124 104.03663982391593 7.951386703658792e-16 -2.827658722188383e-32 -4.075085685625131e-15
64.60000610351562 24.299999237060547 -84.0999984741211 -8.130086422023094 13.484966709285597 3.8261827892472753 6.46879884803991e-07 -1.5815711852451133e-06 4.361345525766583 99.23631996735712 14.887939885674125 -178.16201801520245 -2.3960216889202665e-06 -8.197566633611053e-07 27.207103744674768 3.478731682850722e-15 1.2069275033730902e-32 3.975693351829397e-16 -94.93909218852255 10.068855265091285 -173.65179683425586 3.7269656434445805e-06 -1.2356935573623542e-06 -32.70558782234516 -4.075085685625131e-15 -7.951386703658792e-16 -2.827658722188383e-32 5.791966720080507 -27.85895277653964 34.378851291117726 20.22702700139957 26.408063708049756 -92.1444662076403 1.5902773407317584e-15 -1.5902773407317584e-15 1.987846675914698e-16 -0.2990761873197249 -34.30838172079905 -51.640607350238234 -37.207412700621866 28.664853639385104 118.97810035137374 1.5902773407317582e-15 3.975693351829396e-16 2.584200678689107e-15
65.0 24.200000762939453 -82.5999984741211 -9.027609157334444 13.494678578748855 4.797634501460021 8.651037133017178e-08 -6.058519331099576e-07 4.098695646263006 99.75892651590613 15.5058574421621 -177.29525653341545 2.801082057593905e-07 -2.8194454096214134e-07 25.802138317130492 -3.1805546814635168e-15 3.578124016646457e-15 7.951386703658794e-16 -94.75802456261285 10.78880298201596 -172.83242236645359 1.3312715448596834e-06 -2.513924035451429e-06 -33.1742973966093 1.0933156717530838e-15 1.517280289954742e-32 1.5902773407317582e-15 6.54725656438604 -26.15302553486839 30.392778597845535 17.25680287902897 26.52824926090149 -88.26406939482504 -1.9862578341225716e-31 -3.1805546814635168e-15 -7.156248033292914e-15 -0.5472420499723518 -38.04441432538085 -57.81358696027552 -46.74227385392872 29.353179716133933 129.11459242807788 0.0 0.0 -1.5902773407317584e-15
65.30000305175781 24.100000381469727 -81.0 -9.72262465463938 13.634942441389676 5.854195078763335 4.374710374505332e-07 -1.2072105918912356e-06 4.032561125869903 99.8747678040283 15.840151665603326 -176.47048714090067 -5.948851502336978e-07 -1.4747064198262433e-06 25.595219750881075 -8.94531004161614e-15 3.975693351829398e-16 -2.3854160110976376e-15 -94.61885828070729 12.007125215799299 -172.10405273340012 -7.582200631763391e-07 -1.889641428837487e-06 -32.748201344669894 2.584200678689107e-15 0.0 0.0 7.078427216122786 -24.73992732817458 25.38636369859735 13.789827829079607 27.19291396435515 -83.32295092968302 0.0 0.0 -7.156248033292914e-15 -1.35832283348325 -41.8097681921709 -63.4335610404723 -54.65447468119418 29.75284723554422 135.99528448553917 -3.180554681463516e-15 -3.1805546814635168e-15 6.758678698109972e-15
65.4000015258789 24.200000762939453 -79.0999984741211 -10.304852079738396 13.86022136351369 6.3019487773698115 -6.903324377470079e-07 -3.756920458371374e-07 4.380696901432734 99.95846300640625 14.922543413278781 -175.66666120963 3.133778269132271e-06 -3.0017564376083247e-06 25.890548670627044 1.9878466759146975e-16 3.1805546814635164e-15 1.1927080055488186e-15 -94.38613512421725 12.59789904327288 -171.41620108115308 -1.590927658048284e-06 -4.009726888623251e-07 -32.05536921747043 2.4848083448933718e-15 -1.7241821476758433e-32 -7.95138670365879e-16 7.953918532782718 -23.222782260341106 20.923902091098473 10.54003272929906 27.249548302361582 -78.60655868059929 4.4139062980501586e-32 7.951386703658791e-16 -6.361109362927033e-15 -1.077810428436574 -45.90408433027425 -66.66967454553651 -60.26589787271988 28.917745292757786 139.28384992476356 1.5902773407317582e-15 -7.95138670365879e-16 3.1805546814635164e-15
65.5999984741211 24.100000381469727 -77.0 -10.652185727997566 14.01158583770008 7.640760115621955 -1.2225844246936576e-07 -6.208111338825958e-07 3.7620193378814317 99.80982089114997 12.608749410242574 -175.04233816866187 -1.1026524236720774e-06 6.078034888197248e-07 26.918672259405486 -2.8823776800763118e-15 1.987846675914698e-16 -7.951386703658791e-16 -94.42268633987226 13.632359146958796 -170.49580119575188 -1.578744304525291e-06 -3.8637458494406125e-07 -30.99795633345692 -3.478731682850721e-16 0.0 0.0 8.055277846322475 -22.059625877780455 17.969549145946786 8.494020710138452 27.216659370061286 -74.95060095308047 1.73797560485725e-31 -2.3854160110976376e-15 8.348956038841732e-15 -2.809703264057757 -50.149081801681895 -72.07262090764519 -63.52792435629124 27.88336528727003 139.49071852832262 -1.5902773407317582e-15 5.517382872562698e-33 -3.9756933518293955e-16
65.80000305175781 24.100000381469727 -74.69999694824219 -10.30483964736194 14.524589146013884 8.287188836311978 4.873005725156231e-07 5.204378395651182e-07 3.3224308312639024 99.3984180281592 8.533963465555221 -174.45997345914668 -1.2678919089228943e-06 -3.9319696976696705e-06 28.57005625111912 1.9878466759146985e-16 -3.1805546814635168e-15 1.3914926731402886e-15 -95.02566995353159 13.700996462958601 -169.8539567717323 -1.65077074234497e-06 -9.687413015559343e-07 -29.941210147320298 -4.050237602176198e-15 -2.8104169007116245e-32 7.951386703658794e-16 7.737012473441287 -20.81404735340072 14.246165234637814 6.23060625743437 26.871511916530316 -71.7580895342454 1.5902773407317588e-15 -1.1034765745125397e-32 -7.951386703658794e-16 -4.943373980253092 -54.63369319004127 -76.11959374040562 -64.37437854806107 26.68178701014947 136.76623454104836 -1.5902773407317584e-15 7.951386703658791e-16 8.348956038841732e-15
65.9000015258789 24.0 -72.29999542236328 -10.162076760807917 15.23703610189199 9.12881317799887 7.102954191270965e-07 4.1929442713841133e-07 2.3380329987858923 99.35493359445533 4.778120290017697 -173.44532636236957 -1.3929882943759335e-06 2.486536814301824e-06 30.125909811465537 8.150171371250262e-15 -3.9756933518293955e-16 7.951386703658792e-16 -95.14939558195397 14.081872476533842 -169.5031848521844 -2.3487314844090935e-06 -6.857940646729569e-07 -29.09885597616625 2.4848083448933725e-17 1.987846675914698e-16 -3.975693351829396e-16 7.587065923298739 -19.668219664393558 8.168687472213861 3.312632892382258 26.110314446674533 -66.44092071147371 1.5902773407317584e-15 7.951386703658791e-16 -6.3611093629270335e-15 -7.412740539650375 -59.07914560272821 -79.61154630205834 -62.79849674654984 25.90285616925708 130.09460541465916 0.0 0.0 -2.1866313435061676e-15
65.9000015258789 23.899999618530273 -69.5999984741211 -9.842922963224918 16.122304645608462 9.273333138553623 8.768453226370865e-07 -3.806417343860804e-07 1.4734041498616015 99.23901952920724 1.744925733850857 -172.3959971809844 -7.127592701164406e-08 1.9514348861788203e-06 32.31076468568895 2.385416011097637e-15 -7.951386703658791e-16 1.6552148617688095e-32 -95.39509582258428 14.814272091047277 -169.49563714611568 -3.273221525231573e-06 -4.1818163375068906e-06 -27.960527706228845 5.028630887977962e-15 0.0 0.0 7.543368314124574 -18.16294927284395 0.784660767457393 -0.7875493605007168 24.8739868681202 -58.49803371806264 3.1805546814635168e-15 7.951386703658792e-16 -7.951386703658792e-16 -10.155459483498188 -63.83551191689011 -83.77742049343723 -60.639640966905006 23.964298913818904 121.2489315407239 7.951386703658794e-16 1.5902773407317588e-15 -9.939233379573495e-17
65.80000305175781 23.600000381469727 -66.79999542236328 -9.521123601102792 17.006481888220794 9.002034895636674 -1.9860628219815758e-07 -5.791903837764475e-07 0.8683147268524104 99.42314978706166 -1.0684364010075686 -171.09674420301948 8.534091091216306e-07 1.7988977049302482e-06 33.688562839707195 -1.9878466759146984e-15 -1.5902773407317588e-15 -3.1805546814635176e-15 -95.41796931062821 15.57798610811103 -169.60183859098643 2.5228055773663994e-06 -4.150585088818e-06 -27.29716650206024 2.410264094546571e-15 3.9756933518293955e-16 1.9878466759146977e-16 7.503650872632158 -16.312549982792458 -10.71641950788098 -5.856123465083247 22.53869105550052 -46.89642826049126 0.0 0.0 3.1805546814635168e-15 -11.879437611654764 -68.03496487355541 -85.96156905731932 -56.53751117736042 22.074021476603033 106.8905108048326 2.855676682088115e-34 4.969616689786745e-17 -6.584742113967437e-16
65.69999694824219 23.299999237060547 -63.599998474121094 -8.841817113469553 17.579475694038067 8.921574070781185 1.1284830419312805e-07 1.7680308869234358e-07 0.11259492551591545 99.63339574191345 -3.985044710773531 -169.3429414323616 -1.604149667307554e-06 -1.6291170142875674e-06 34.50591859996595 -7.553817368475852e-15 1.5902773407317582e-15 3.1805546814635168e-15 -95.6160417023302 16.753525497500842 -169.58562101421276 -8.911501847965109e-07 1.2026909987160646e-06 -26.771375016354757 -7.131399949843978e-15 7.95138670365879e-16 4.94840276382967e-32 6.933611750712929 -13.987150053963983 -19.306515108419674 -8.38485293391775 19.84185482272623 -38.36668653674328 3.310429723537619e-32 7.95138670365879e-16 -4.7708320221952736e-15 -14.495489804068919 -71.3538847681558 -88.78374605785953 -52.166985308961486 19.55855648180684 86.65754437983902 0.0 0.0 6.413911540256018e-16
